<svg xmlns="http://www.w3.org/2000/svg" width="260" height="260" viewBox="0 0 260 260">
  <g id="i-like-food" fill="#000">
    <defs>
      <g id="new-symbol">
        <path d="M 0.5 8.5 L 4.5 0 L 8.6 8.4 C 8.6 8.4 4.3 2.7 0.5 8.5 Z" />
        <path d="m 15.6 8.5 4.0 -8.5 4.0 8.4 c 0 0 -4.3 -5.7 -8.1 0.1 z" />
        <path d="m 0.5 10.8 c 0 0 4.2 -3.4 8.0 0.1 3.8 3.5 -8.0 -0.1 -8.0 -0.1 z" />
        <path d="m 24.3 10.9 c 0 0 -4.2 -3.4 -8.0 0.1 -3.8 3.5 8.0 -0.1 8.0 -0.1 z" />
        <path d="m 0.5 15.8 c 0 0 3.9 4.0 8.0 -0.2 4.1 -4.1 4.0 -4.1 4.0 -4.1 v 2.1 c 0 0 1.2 -0.9 -3.8 3.6 -3.7 3.3 -8.0 0.4 -8.0 0.4 0 0 -1.4 -0.9 -0.1 -1.9 z" />
        <path d="m 24.7 15.8 c 0 0 -3.9 4.0 -8.0 -0.2 -4.1 -4.1 -4.0 -4.1 -4.0 -4.1 v 2.1 c 0 0 -1.2 -0.9 3.8 3.6 3.7 3.3 8.0 0.4 8.0 0.4 0 0 1.4 -0.9 0.1 -1.9 z" />
        <path d="m 25.0 20.1 c 0.8 0.3 0 1.0 0 1.0 0 0 -3.5 1.8 -5.8 2.3 -2.1 0.4 -6.3 -0.6 -4.6 -2.0 2.0 -1.7 3.2 -1.3 4.5 0.3 1.2 1.6 -0.3 0.5 -0.3 0.5 0 0 3.4 0.3 6.2 -2.1 z" />
      </g>
    </defs>

    <use href="#new-symbol" transform="translate(20, 15) scale(1.8)" />
    
    <use href="#new-symbol" transform="translate(210, 15) scale(1.8)" />

    <use href="#new-symbol" transform="translate(115, 90) scale(2.0)" />

    <use href="#new-symbol" transform="translate(30, 180) scale(1.5)" />

    <use href="#new-symbol" transform="translate(190, 180) scale(1.5)" />
  </g>
</svg>
