<svg xmlns="http://www.w3.org/2000/svg" viewBox="0 0 25.404 23.654" fill="none">
  <path fill="#09090B" d="M0.500678 8.552406 4.550347 0 8.628335 8.467448c0 0-4.304543-5.720483-8.127657.084958Z"/>
  <path fill="#09090B" d="m15.635307 8.558778 4.049669-8.552406 4.077988 8.467448c0 0-4.304543-5.720483-8.127657.084958Z"/>
  <path fill="#09090B" d="M0.58135 10.859675s4.198401-3.447091 8.043252.08839c3.844852 3.535478-8.043252-.08839-8.043252-.08839Z"/>
  <path fill="#09090B" d="M24.327625 10.992256s-4.198402-3.447091-8.043253.08839c-3.844851 3.535478 8.043253-.08839 8.043253-.08839Z"/>
  <path fill="#09090B" d="M0.537156 15.809345s3.933239 3.977412 8.043252-.176774c4.110014-4.154186 4.06582-4.109993 4.06582-4.109993v2.121286s1.248304-.921129-3.889046 3.668059c-3.783682 3.379958-8.087445.397741-8.087445.397741s-1.414198-.928062-.132581-1.900319Z"/>
  <path fill="#09090B" d="M24.749629 15.80812s-3.933238 3.977412-8.043252-.176774c-4.110013-4.154186-4.06582-4.109993-4.06582-4.109993v2.121286s-1.248304-.921129 3.889046 3.668059c3.783682 3.379958 8.087445.397741 8.087445.397741s1.414199-.928062.132581-1.900319Z"/>
  <path fill="#09090B" d="M25.020989 20.162856c.861777.331451 0 1.060644 0 1.060644s-3.579845 1.834028-5.833789 2.320158c-2.166977.467371-6.304097-.614277-4.640472-2.032901 2.08746-1.780041 3.270429-1.325804 4.507887.309354 1.23746 1.635159-.309365.530323-.309365.530323s3.425121.375644 6.275743-2.187578Z"/>
</svg>
